<svg width="125" height="27" viewBox="0 0 125 27" fill="none" xmlns="http://www.w3.org/2000/svg">
<path d="M0.557922 20.466H3.55359V0.968693H0.557922V20.466Z" fill="#26272A"/>
<path d="M16.6406 7.39163C15.879 6.97696 14.9905 6.76965 13.975 6.76965C13.1542 6.76965 12.4052 6.91351 11.7282 7.20123C11.0597 7.48048 10.4885 7.88245 10.0146 8.40711V7.0235H7.19664V20.466H10.0146V12.8498C10.0146 12.0628 10.15 11.3985 10.4208 10.857C10.7001 10.3154 11.0809 9.90918 11.5632 9.63837C12.054 9.35912 12.6083 9.21949 13.2261 9.21949C15.2317 9.21949 16.2344 10.3788 16.2344 12.6975V20.466H19.0524V12.2913C19.0524 11.0981 18.8408 10.0869 18.4177 9.25757C17.9946 8.42825 17.4022 7.80628 16.6406 7.39163Z" fill="#26272A"/>
<path d="M23.9775 20.2375C24.8999 20.5591 25.8773 20.7198 26.9097 20.7198C27.9252 20.7198 28.8137 20.5548 29.5753 20.2248C30.337 19.8863 30.9251 19.3997 31.3397 18.765C31.7544 18.1304 31.9618 17.373 31.9618 16.4929C31.9618 15.7143 31.7925 15.067 31.454 14.5508C31.1155 14.0346 30.667 13.6199 30.1085 13.3068C29.5499 12.9937 28.8645 12.7102 28.0521 12.4563L27.811 12.3802C27.117 12.1686 26.5881 11.9909 26.2243 11.8471C25.8688 11.7032 25.5769 11.5213 25.3484 11.3012C25.1199 11.0728 25.0057 10.7893 25.0057 10.4508C25.0057 10.0023 25.1876 9.65107 25.5515 9.39719C25.9238 9.14334 26.4062 9.01639 26.9986 9.01639C27.4978 9.01639 28.0309 9.11371 28.598 9.30834C29.1734 9.49451 29.715 9.76955 30.2227 10.1334L31.619 8.14054C30.9674 7.70049 30.2481 7.362 29.4611 7.12505C28.6826 6.88811 27.8956 6.76965 27.1001 6.76965C26.1777 6.76965 25.3442 6.92619 24.5995 7.2393C23.8548 7.5524 23.2667 8.00938 22.8351 8.61021C22.4119 9.20256 22.2004 9.91341 22.2004 10.7427C22.2004 11.5043 22.3781 12.1348 22.7335 12.6341C23.0889 13.1249 23.5544 13.5184 24.1298 13.8145C24.7053 14.1023 25.433 14.3858 26.3131 14.665C26.9816 14.8681 27.4936 15.0458 27.849 15.1982C28.2129 15.342 28.5133 15.5366 28.7503 15.7821C28.9872 16.019 29.1057 16.3236 29.1057 16.696C29.1057 17.2291 28.9026 17.6438 28.4964 17.9399C28.0987 18.2277 27.5571 18.3715 26.8716 18.3715C26.1777 18.3715 25.4753 18.2234 24.7645 17.9273C24.0536 17.6311 23.4317 17.2587 22.8986 16.8102L21.553 18.9681C22.247 19.4843 23.0551 19.9075 23.9775 20.2375Z" fill="#26272A"/>
<path d="M38.7528 9.34642H42.0785V7.0235H38.7528V3.30431H35.9348V7.0235H33.7388V9.34642H35.9348V16.531C35.9348 17.3687 36.0998 18.0838 36.4299 18.6762C36.7684 19.2601 37.2465 19.7044 37.8642 20.009C38.482 20.3137 39.2055 20.466 40.0348 20.466H42.0531V18.0415H40.5934C40.0348 18.0415 39.5863 17.868 39.2478 17.5211C38.9178 17.1741 38.7528 16.6833 38.7528 16.0486V9.34642Z" fill="#26272A"/>
<path fill-rule="evenodd" clip-rule="evenodd" d="M54.9603 19.7565C55.0045 19.7277 55.0488 19.6982 55.0932 19.6681C55.1847 19.606 55.2766 19.5412 55.3686 19.4735V20.466H58.1866V14.0802C58.1914 13.9713 58.1939 13.8618 58.1939 13.7517C58.1939 13.6281 58.1909 13.5053 58.1847 13.3833C58.0932 9.55863 54.7156 6.51474 50.9606 6.55699C49.8143 6.56989 48.7601 6.83709 47.8332 7.29607C45.701 8.34516 44.1642 10.4191 43.8659 12.8754C43.8218 13.2003 43.7991 13.5298 43.7991 13.862C43.7991 14.9268 44.0668 15.9617 44.5356 16.8968C45.0678 17.9893 45.8683 18.9265 46.8518 19.6232C47.9875 20.4486 49.3485 20.9468 50.7714 20.9468C51.5534 20.9468 52.3041 20.8649 53.0485 20.6472C53.3736 20.5521 53.6975 20.4311 54.0222 20.2797C54.3492 20.1283 54.6621 19.9534 54.9603 19.7565ZM52.5095 17.9483C52.0397 18.112 51.5415 18.1938 51.0147 18.1938C50.2108 18.1938 49.4704 17.9992 48.7934 17.6099C48.1164 17.2206 47.579 16.6875 47.1813 16.0105C46.7835 15.3251 46.5847 14.5677 46.5847 13.7384C46.5847 12.9175 46.7835 12.1686 47.1813 11.4916C47.579 10.8146 48.1164 10.2815 48.7934 9.89225C49.4704 9.50298 50.2108 9.30834 51.0147 9.30834C51.498 9.30834 51.9573 9.37722 52.3927 9.51497C53.6223 9.91797 54.6164 10.8414 55.1141 12.0248C55.3346 12.5561 55.4448 13.1273 55.4448 13.7384C55.4448 14.5592 55.2459 15.3124 54.8482 15.9978C54.7504 16.1679 54.6435 16.3292 54.5275 16.4817C54.0128 17.145 53.3146 17.6594 52.5095 17.9483Z" fill="#26272A"/>
<path fill-rule="evenodd" clip-rule="evenodd" d="M64.6857 25.9877C65.8196 26.5208 67.072 26.7873 68.4429 26.7873C69.8138 26.7873 71.024 26.5039 72.0733 25.9369C73.1311 25.3699 73.9477 24.5871 74.5231 23.5886C75.1071 22.5985 75.399 21.4899 75.399 20.2629V7.0235H72.5811V8.88946C71.9971 8.21248 71.2906 7.69205 70.4612 7.32816C69.6404 6.95582 68.7307 6.76965 67.7321 6.76965C66.5135 6.76965 65.3881 7.07851 64.3557 7.69626C63.3232 8.31403 62.5024 9.15602 61.8931 10.2223C61.2838 11.2885 60.9792 12.4606 60.9792 13.7384C60.9792 15.0162 61.2838 16.1883 61.8931 17.2545C62.5024 18.3208 63.3232 19.167 64.3557 19.7932C65.3881 20.411 66.5135 20.7198 67.7321 20.7198C68.7307 20.7198 69.6404 20.5379 70.4612 20.174C71.2906 19.8017 71.9971 19.2812 72.5811 18.6127V20.2375C72.5811 21.016 72.4076 21.7057 72.0606 22.3065C71.7221 22.9158 71.2355 23.3897 70.6009 23.7282C69.9746 24.0752 69.2426 24.2486 68.4049 24.2486C67.4148 24.2486 66.5347 24.0456 65.7646 23.6394C65.003 23.2332 64.3557 22.5773 63.8225 21.6719L61.7535 23.3601C62.5743 24.5871 63.5518 25.463 64.6857 25.9877ZM70.4612 17.6099C69.7843 17.9992 69.0396 18.1938 68.2272 18.1938C67.4232 18.1938 66.6828 17.9992 66.0058 17.6099C65.3288 17.2206 64.7914 16.6875 64.3937 16.0105C63.996 15.3251 63.7971 14.5677 63.7971 13.7384C63.7971 12.9175 63.996 12.1686 64.3937 11.4916C64.7914 10.8146 65.3288 10.2815 66.0058 9.89225C66.6828 9.50298 67.4232 9.30834 68.2272 9.30834C69.0396 9.30834 69.7843 9.50298 70.4612 9.89225C71.1382 10.2815 71.6713 10.8146 72.0606 11.4916C72.4584 12.1686 72.6572 12.9175 72.6572 13.7384C72.6572 14.5592 72.4584 15.3124 72.0606 15.9978C71.6713 16.6748 71.1382 17.2122 70.4612 17.6099Z" fill="#26272A"/>
<path d="M83.396 7.51856C82.592 7.984 81.9785 8.57211 81.5554 9.28297V7.0235H78.8136V20.466H81.6316V13.6749C81.6316 12.1771 82.0293 11.1024 82.8247 10.4508C83.6286 9.7907 84.7627 9.46067 86.2266 9.46067V6.76965C85.1519 6.80349 84.2084 7.05314 83.396 7.51856Z" fill="#26272A"/>
<path d="M119.331 6.76965C120.304 6.76965 121.151 6.95582 121.87 7.32816C122.598 7.70049 123.156 8.22939 123.546 8.91484C123.935 9.59183 124.13 10.3788 124.13 11.2759V20.466H121.312V12.1644C121.312 11.1743 121.075 10.4423 120.601 9.96842C120.135 9.49451 119.526 9.25757 118.773 9.25757C117.952 9.25757 117.3 9.51991 116.818 10.0446C116.336 10.5692 116.094 11.3097 116.094 12.2659V20.466H113.277V12.1644C113.277 11.1743 113.044 10.4423 112.578 9.96842C112.113 9.49451 111.499 9.25757 110.738 9.25757C109.917 9.25757 109.265 9.51991 108.783 10.0446C108.301 10.5692 108.059 11.3097 108.059 12.2659V20.466H105.242V7.0235H108.059V8.19131C108.508 7.73436 109.033 7.38316 109.633 7.13775C110.243 6.89234 110.916 6.76965 111.652 6.76965C112.49 6.76965 113.221 6.90928 113.848 7.18853C114.482 7.46778 114.986 7.89936 115.358 8.48326C115.841 7.93322 116.42 7.51009 117.097 7.21391C117.774 6.91772 118.519 6.76965 119.331 6.76965Z" fill="#26272A"/>
<path fill-rule="evenodd" clip-rule="evenodd" d="M99.0017 19.4665C98.865 19.567 98.729 19.6612 98.5934 19.7495C98.2952 19.9464 97.9823 20.1212 97.6554 20.2727C97.3307 20.4241 97.0067 20.5451 96.6816 20.6402C95.9372 20.8579 95.1865 20.9398 94.4045 20.9398C92.9816 20.9398 91.6206 20.4416 90.4849 19.6161C89.5014 18.9195 88.7009 17.9823 88.1687 16.8898C87.7 15.9547 87.4322 14.9198 87.4322 13.8549C87.4322 13.5228 87.4549 13.1933 87.499 12.8684C87.7973 10.4121 89.3342 8.33813 91.4663 7.28905C92.3932 6.83006 93.4474 6.56286 94.5937 6.54996C98.3488 6.50771 101.726 9.55161 101.818 13.3763C101.824 13.4983 101.827 13.6211 101.827 13.7447C101.827 13.8548 101.825 13.9643 101.82 14.0732V20.4589H99.0017V19.4665ZM94.6478 18.1868C95.1746 18.1868 95.6728 18.105 96.1426 17.9413C96.9477 17.6523 97.646 17.138 98.1606 16.4747C98.2766 16.3222 98.3835 16.1609 98.4813 15.9908C98.8791 15.3054 99.0779 14.5522 99.0779 13.7314C99.0779 13.1203 98.9677 12.5491 98.7473 12.0178C98.2495 10.8344 97.2554 9.91094 96.0258 9.50794C95.5904 9.3702 95.1311 9.30132 94.6478 9.30132C93.8439 9.30132 93.1035 9.49595 92.4265 9.88522C91.7495 10.2745 91.2121 10.8076 90.8144 11.4846C90.4167 12.1616 90.2178 12.9105 90.2178 13.7314C90.2178 14.5607 90.4167 15.3181 90.8144 16.0035C91.2121 16.6805 91.7495 17.2136 92.4265 17.6029C93.1035 17.9922 93.8439 18.1868 94.6478 18.1868Z" fill="#26272A"/>
</svg>
